<?xml version="1.0" encoding="utf-8"?>
<!-- Generator: Adobe Illustrator 27.6.1, SVG Export Plug-In . SVG Version: 6.00 Build 0)  -->
<svg version="1.1" id="Ebene_1" xmlns="http://www.w3.org/2000/svg" xmlns:xlink="http://www.w3.org/1999/xlink" x="0px" y="0px"
	 viewBox="0 0 48 48" style="enable-background:new 0 0 48 48;" xml:space="preserve">
<style type="text/css">
	.st0{fill:#FFFFFF;}
</style>
<path class="st0" d="M24,44c-2.4-0.3-4.8-1-7.2-2.1c-2.4-1.1-4.5-2.7-6.4-4.6S7,32.8,5.8,29.9S4,23.6,4,19.8v-1.9h1.9
	c1.8,0,3.7,0.3,5.7,1s3.8,1.6,5.3,2.6c0.3-3,1.1-6.1,2.4-9.3C20.6,9,22.2,6.3,24,4c1.8,2.3,3.4,5,4.8,8.2s2.1,6.3,2.4,9.3
	c1.5-1,3.3-1.9,5.3-2.6s3.9-1.1,5.7-1.1H44v1.9c0,3.9-0.6,7.3-1.8,10.2s-2.7,5.4-4.6,7.4c-1.9,2-4,3.5-6.4,4.6
	C28.8,43,26.4,43.7,24,44z M24.4,40.9C24,34.7,22.2,30,19,26.8c-3.2-3.2-7.2-5.2-12-5.9c0.4,6.4,2.3,11.2,5.6,14.4
	S19.9,40.3,24.4,40.9z M24,28.7c0.5-0.9,1.1-1.8,1.9-2.8c0.8-1,1.6-1.8,2.4-2.5c0.2-2.3-0.2-4.6-1-6.9s-1.9-4.8-3.2-7.3
	c-1.3,2.5-2.4,4.9-3.2,7.3c-0.8,2.3-1.2,4.6-1,6.9c0.8,0.7,1.5,1.5,2.3,2.5S23.5,27.8,24,28.7z M27.4,40.1c1.6-0.6,3.1-1.3,4.7-2.2
	c1.5-0.9,3-2.1,4.2-3.6s2.3-3.3,3.1-5.5c0.9-2.2,1.4-4.8,1.5-7.8c-3.5,0.6-6.7,1.8-9.4,3.8s-4.7,4.4-6,7.2c0.4,1.3,0.8,2.5,1.1,3.8
	C27,37,27.2,38.5,27.4,40.1z"/>
</svg>
