<?xml version="1.0" encoding="utf-8"?>
<!-- Generator: Adobe Illustrator 27.6.1, SVG Export Plug-In . SVG Version: 6.00 Build 0)  -->
<svg version="1.1" id="Ebene_1" xmlns="http://www.w3.org/2000/svg" xmlns:xlink="http://www.w3.org/1999/xlink" x="0px" y="0px"
	 viewBox="0 0 48 48" style="enable-background:new 0 0 48 48;" xml:space="preserve">
<style type="text/css">
	.st0{fill:#FFFFFF;}
</style>
<path class="st0" d="M4,40v-3h12c-0.7-3-2.1-5.7-4.4-8S6.8,25.2,4,24.5c0.7-0.2,1.3-0.3,2-0.4C6.6,24,7.3,24,8,24
	c4.5,0,8.2,1.5,11.4,4.6S24,35.5,24,40H4z M27,40c0-1.4-0.1-2.6-0.4-3.7s-0.6-2.1-1-3.1c1.3-2.9,3.3-5.2,6-6.8S37.1,24,40,24
	c0.7,0,1.4,0,2,0.1c0.6,0.1,1.3,0.2,2,0.4c-2.8,0.7-5.4,2.3-7.7,4.6C34,31.4,32.6,34,32,37h12v3H27z M24.1,30.3
	c-0.3-2.5-0.1-4.9,0.6-7.1c0.7-2.2,1.8-4.1,3.2-5.8c1.4-1.6,3.1-2.9,5.1-3.9s4.1-1.5,6.3-1.6c-1.9,1.2-3.6,2.8-5.3,4.8
	c-1.6,2-2.7,4.2-3.1,6.5c-1.5,0.7-2.8,1.7-4,2.9C25.9,27.5,24.9,28.8,24.1,30.3z M21.1,26.5c-0.5-0.5-1.1-1-1.8-1.5
	c-0.6-0.5-1.2-0.9-1.6-1.1c0.1-0.4,0.2-0.8,0.2-1.3c0-0.5,0.1-0.9,0.1-1.2c0-2.5-0.4-4.9-1.2-7.2C16,11.9,14.9,9.9,13.4,8
	c2.3,0.9,4.4,2.4,6.2,4.4s3.1,4.3,3.8,6.9c-0.6,1.1-1.1,2.2-1.5,3.5C21.5,24.1,21.2,25.3,21.1,26.5z"/>
</svg>
