<?xml version="1.0" encoding="UTF-8"?>
<svg id="Ebene_1" data-name="Ebene 1" xmlns="http://www.w3.org/2000/svg" viewBox="0 0 438.44 91.97">
  <defs>
    <style>
      .cls-1, .cls-2 {
        fill: #fff;
      }

      .cls-3 {
        letter-spacing: -.02em;
      }

      .cls-4 {
        letter-spacing: 0em;
      }

      .cls-5 {
        letter-spacing: 0em;
      }

      .cls-2 {
        font-family: HelveticaNeue-Light, 'Helvetica Neue';
        font-size: 66.36px;
        font-weight: 300;
      }
    </style>
  </defs>
  <text class="cls-2" transform="translate(0 64.08)"><tspan class="cls-4" x="0" y="0">Co</tspan><tspan class="cls-3" x="82.82" y="0">f</tspan><tspan class="cls-5" x="98.42" y="0">feeCube</tspan></text>
  <g>
    <path class="cls-1" d="m392.62,89.41c-.79.72-1.52,1.36-2.21,2.04-.66.66-.65.7-1.34.02-2.66-2.64-5.3-5.28-7.95-7.92-10.95-10.95-21.91-21.91-32.85-32.86-.61-.61-1.2-1.25-1.95-2.05.99-.87,1.92-1.69,2.89-2.55-.97-1.01-1.83-1.9-2.71-2.82.62-.62,1.19-1.18,1.75-1.74,13.38-13.36,26.75-26.72,40.13-40.09.3-.3.6-.6.88-.92.35-.41.66-.34,1,.01.73.75,1.47,1.48,2.29,2.31.92-.96,1.81-1.89,2.74-2.85.49.51.9.97,1.34,1.41,13.78,13.77,27.57,27.53,41.36,41.29.4.4.42.64.01,1.02-.74.7-1.43,1.45-2.09,2.12.72.78,1.38,1.58,2.13,2.29.52.49.55.79.02,1.31-2.88,2.8-5.73,5.62-8.58,8.46-10.15,10.13-20.3,20.26-30.44,30.4-1.08,1.08-2.14,2.16-3.19,3.27-.39.42-.68.47-1.1.02-.7-.77-1.46-1.49-2.13-2.17Zm-12.32-44.25c.1.08.19.16.29.23,5.12,3.66,9.01,8.34,11.64,14.06.14.31.29.66.29.99.02,2.34,0,4.69-.02,7.03,0,.02-.07.04-.11.07-.04-.06-.1-.11-.12-.18-.07-.29-.13-.58-.2-.87-.7-2.75-1.7-5.36-3.41-7.66-.32-.43-.65-.56-1.2-.51-3.55.32-7-.12-10.38-1.28-2.74-.94-4.75-2.83-6.76-4.8-1.97-1.93-3.14-4.32-4.08-6.8-.99-2.63-1.51-5.42-1.6-8.25-.04-1.13-.12-2.26-.19-3.39-.07-.07-.15-.13-.22-.2-.2.28-.36.6-.59.84-3.55,3.54-7.1,7.08-10.66,10.61-.99.98-1,.97,0,1.96,12.38,12.38,24.77,24.76,37.15,37.14.77.77,1.49,1.6,2.26,2.44.34-.3.52-.46.7-.63,7.64-7.63,15.28-15.27,22.92-22.9,5.35-5.34,10.69-10.68,16.03-16.03,1.16-1.17,1-.94.01-1.93-5-4.98-10.02-9.94-15.01-14.94-8-8.01-15.99-16.04-23.97-24.07-.44-.44-.69-.43-1.13,0-6.95,6.98-13.92,13.94-20.89,20.91-.38.38-.75.78-1.19,1.23.31.2.53.37.77.48,2.47,1.13,4.92,2.31,7.41,3.37,3.6,1.53,7.11,3.22,9.79,6.16,1.08,1.19,2.08,2.51,2.82,3.93,1.42,2.72,1.66,5.71,1.55,8.73-.03.8-.19,1.59-.31,2.61-3.33-3.79-6.93-6.83-11.59-8.36Zm53.95-.43c.43-.39.7-.64.98-.88.47-.4.41-.72-.02-1.15-4.89-4.84-9.77-9.69-14.64-14.55-8.15-8.14-16.29-16.29-24.43-24.44-.9-.9-.86-.9-1.8-.05-.41.37-.36.65,0,.98.62.57,1.26,1.13,1.85,1.73,2.97,2.99,5.91,6,8.89,8.98,9.36,9.37,18.73,18.72,28.08,28.09.38.38.71.83,1.09,1.29Zm-83.49,2.73c-.38.35-.61.61-.88.81-.46.34-.42.62-.02,1.02,6.56,6.53,13.11,13.06,19.65,19.61,6.6,6.62,13.18,13.27,19.77,19.91.15.15.47.36.53.31.4-.32.81-.67,1.1-1.09.07-.1-.22-.54-.43-.75-12.38-12.38-24.77-24.76-37.16-37.14-.86-.86-1.68-1.76-2.56-2.69Zm84.94,1.15c-.4-.32-.74-.68-1.15-.88-.16-.08-.5.16-.72.3-.18.12-.31.32-.47.48-13.02,12.97-26.04,25.94-39.06,38.92-.11.11-.28.35-.25.39.33.4.66.81,1.07,1.11.1.07.55-.2.75-.4,7.86-7.84,15.7-15.69,23.55-23.53,5.2-5.2,10.41-10.4,15.61-15.6.19-.19.35-.4.66-.78Zm-67.51-21.51c.76-.8,1.49-1.61,2.26-2.38,6.64-6.65,13.29-13.29,19.93-19.94.63-.63.59-.61-.12-1.41-.51-.57-.77-.22-1.12.13-7.1,7.1-14.21,14.2-21.32,21.3q-1.12,1.12.37,2.29Zm-3.29.77c-5.11,5.11-10.26,10.25-15.45,15.44.22.24.49.53.75.83.31.37.55.35.9,0,4-4.03,7.96-8.1,12.05-12.04,1.29-1.24,1.81-2.59,1.75-4.22Z"/>
    <path class="cls-1" d="m420.62,35.01c-.32,5.65-1.17,10.92-3.85,15.74-2.42,4.35-6.13,6.9-11.02,7.76-2.17.38-4.32.33-6.39-.51-.39-.16-.6-.04-.88.28-2.15,2.41-3.27,5.32-4.14,8.36-.08.27-.2.52-.41.74,0-2.3-.21-4.62.06-6.89.22-1.88,1.45-3.47,2.63-4.95,1.82-2.29,3.98-4.18,6.58-5.55.17-.09.34-.2.51-.3.01,0,0-.05.02-.14-3.18.96-5.92,2.58-8.27,4.92-.08-.02-.16-.05-.24-.07-.1-.79-.29-1.58-.27-2.36.07-3.58,1.41-6.55,4.22-8.85,3.08-2.51,6.77-3.31,10.55-4.04,2.43-.47,4.83-1.18,7.18-1.96,1.03-.34,1.92-1.13,2.87-1.71.22-.13.45-.25.83-.47Z"/>
  </g>
</svg>